<?xml version="1.0" encoding="UTF-8"?>
<svg xmlns="http://www.w3.org/2000/svg" xmlns:xlink="http://www.w3.org/1999/xlink" width="29pt" height="19pt" viewBox="0 0 29 19" version="1.1">
<g id="surface1">
<path style=" stroke:none;fill-rule:nonzero;fill:rgb(14.509804%,34.117647%,83.921569%);fill-opacity:1;" d="M 1.488281 0 L 27.511719 0 C 28.335938 0 29 0.679688 29 1.519531 L 29 17.480469 C 29 18.320312 28.335938 19 27.511719 19 L 1.488281 19 C 0.664062 19 0 18.320312 0 17.480469 L 0 1.519531 C 0 0.679688 0.664062 0 1.488281 0 Z M 1.488281 0 "/>
<path style=" stroke:none;fill-rule:nonzero;fill:rgb(100%,100%,100%);fill-opacity:1;" d="M 0.0078125 8.957031 L 1.402344 8.957031 L 1.714844 8.214844 L 2.417969 8.214844 L 2.730469 8.957031 L 5.46875 8.957031 L 5.46875 8.390625 L 5.714844 8.957031 L 7.136719 8.957031 L 7.378906 8.382812 L 7.378906 8.957031 L 14.1875 8.957031 L 14.183594 7.738281 L 14.316406 7.738281 C 14.410156 7.742188 14.433594 7.75 14.433594 7.898438 L 14.433594 8.957031 L 17.957031 8.957031 L 17.957031 8.671875 C 18.238281 8.820312 18.679688 8.957031 19.261719 8.957031 L 20.742188 8.957031 L 21.0625 8.214844 L 21.761719 8.214844 L 22.074219 8.957031 L 24.925781 8.957031 L 24.925781 8.253906 L 25.359375 8.957031 L 27.648438 8.957031 L 27.648438 4.300781 L 25.382812 4.300781 L 25.382812 4.851562 L 25.066406 4.300781 L 22.742188 4.300781 L 22.742188 4.851562 L 22.453125 4.300781 L 19.316406 4.300781 C 18.789062 4.300781 18.328125 4.371094 17.957031 4.574219 L 17.957031 4.300781 L 15.789062 4.300781 L 15.789062 4.574219 C 15.554688 4.367188 15.230469 4.300781 14.871094 4.300781 L 6.960938 4.300781 L 6.429688 5.503906 L 5.886719 4.300781 L 3.394531 4.300781 L 3.394531 4.851562 L 3.121094 4.300781 L 0.996094 4.300781 L 0.0078125 6.515625 Z M 8.796875 8.285156 L 7.960938 8.285156 L 7.957031 5.671875 L 6.777344 8.285156 L 6.0625 8.285156 L 4.875 5.667969 L 4.875 8.285156 L 3.21875 8.285156 L 2.90625 7.539062 L 1.210938 7.539062 L 0.894531 8.285156 L 0.0078125 8.285156 L 1.46875 4.945312 L 2.679688 4.945312 L 4.0625 8.105469 L 4.0625 4.945312 L 5.394531 4.945312 L 6.460938 7.210938 L 7.441406 4.945312 L 8.796875 4.945312 Z M 2.628906 6.847656 L 2.070312 5.515625 L 1.515625 6.847656 Z M 12.121094 8.285156 L 9.398438 8.285156 L 9.398438 4.945312 L 12.121094 4.945312 L 12.121094 5.640625 L 10.214844 5.640625 L 10.214844 6.242188 L 12.074219 6.242188 L 12.074219 6.929688 L 10.214844 6.929688 L 10.214844 7.59375 L 12.121094 7.59375 Z M 15.957031 5.847656 C 15.957031 6.378906 15.59375 6.652344 15.382812 6.734375 C 15.558594 6.800781 15.710938 6.917969 15.785156 7.015625 C 15.898438 7.183594 15.917969 7.332031 15.917969 7.628906 L 15.917969 8.285156 L 15.097656 8.285156 L 15.09375 7.863281 C 15.09375 7.664062 15.113281 7.375 14.964844 7.214844 C 14.847656 7.097656 14.664062 7.070312 14.371094 7.070312 L 13.496094 7.070312 L 13.496094 8.285156 L 12.683594 8.285156 L 12.683594 4.945312 L 14.558594 4.945312 C 14.972656 4.945312 15.28125 4.957031 15.542969 5.105469 C 15.800781 5.253906 15.957031 5.472656 15.957031 5.847656 Z M 14.925781 6.339844 C 14.8125 6.40625 14.679688 6.410156 14.523438 6.410156 L 13.53125 6.410156 L 13.53125 5.667969 L 14.535156 5.667969 C 14.679688 5.667969 14.828125 5.675781 14.921875 5.730469 C 15.027344 5.777344 15.09375 5.882812 15.09375 6.023438 C 15.09375 6.171875 15.03125 6.289062 14.925781 6.339844 Z M 17.261719 8.285156 L 16.429688 8.285156 L 16.429688 4.945312 L 17.261719 4.945312 Z M 26.914062 8.285156 L 25.757812 8.285156 L 24.214844 5.78125 L 24.214844 8.285156 L 22.554688 8.285156 L 22.238281 7.539062 L 20.546875 7.539062 L 20.238281 8.285156 L 19.285156 8.285156 C 18.886719 8.285156 18.386719 8.199219 18.101562 7.914062 C 17.816406 7.632812 17.667969 7.25 17.667969 6.640625 C 17.667969 6.144531 17.757812 5.695312 18.105469 5.335938 C 18.371094 5.070312 18.78125 4.945312 19.34375 4.945312 L 20.132812 4.945312 L 20.132812 5.660156 L 19.359375 5.660156 C 19.0625 5.660156 18.894531 5.707031 18.734375 5.859375 C 18.59375 6 18.5 6.265625 18.5 6.617188 C 18.5 6.972656 18.570312 7.230469 18.722656 7.398438 C 18.847656 7.53125 19.078125 7.570312 19.292969 7.570312 L 19.65625 7.570312 L 20.804688 4.945312 L 22.027344 4.945312 L 23.40625 8.105469 L 23.40625 4.945312 L 24.644531 4.945312 L 26.078125 7.273438 L 26.078125 4.945312 L 26.914062 4.945312 Z M 21.960938 6.847656 L 21.398438 5.515625 L 20.835938 6.847656 Z M 28.988281 13.613281 C 28.789062 13.898438 28.40625 14.042969 27.882812 14.042969 L 26.308594 14.042969 L 26.308594 13.324219 L 27.875 13.324219 C 28.03125 13.324219 28.140625 13.304688 28.207031 13.242188 C 28.269531 13.1875 28.304688 13.109375 28.304688 13.023438 C 28.304688 12.929688 28.261719 12.851562 28.203125 12.804688 C 28.144531 12.753906 28.058594 12.730469 27.917969 12.730469 C 27.152344 12.703125 26.195312 12.753906 26.195312 11.695312 C 26.195312 11.210938 26.511719 10.703125 27.367188 10.703125 L 28.988281 10.703125 L 28.988281 10.039062 L 27.480469 10.039062 C 27.027344 10.039062 26.695312 10.144531 26.460938 10.3125 L 26.460938 10.039062 L 24.230469 10.039062 C 23.875 10.039062 23.457031 10.125 23.257812 10.3125 L 23.257812 10.039062 L 19.273438 10.039062 L 19.273438 10.3125 C 18.957031 10.085938 18.421875 10.039062 18.175781 10.039062 L 15.550781 10.039062 L 15.550781 10.3125 C 15.296875 10.074219 14.742188 10.039062 14.402344 10.039062 L 11.460938 10.039062 L 10.789062 10.75 L 10.15625 10.039062 L 5.765625 10.039062 L 5.765625 14.699219 L 10.074219 14.699219 L 10.769531 13.972656 L 11.421875 14.699219 L 14.078125 14.699219 L 14.078125 13.605469 L 14.339844 13.605469 C 14.691406 13.609375 15.105469 13.59375 15.472656 13.441406 L 15.472656 14.695312 L 17.664062 14.695312 L 17.664062 13.484375 L 17.769531 13.484375 C 17.90625 13.484375 17.917969 13.488281 17.917969 13.621094 L 17.917969 14.695312 L 24.574219 14.695312 C 24.996094 14.695312 25.4375 14.589844 25.683594 14.398438 L 25.683594 14.695312 L 27.792969 14.695312 C 28.234375 14.695312 28.660156 14.636719 28.988281 14.480469 Z M 15.792969 11.824219 C 15.792969 12.75 15.085938 12.941406 14.375 12.941406 L 13.355469 12.941406 L 13.355469 14.0625 L 11.773438 14.0625 L 10.769531 12.957031 L 9.726562 14.0625 L 6.5 14.0625 L 6.5 10.722656 L 9.777344 10.722656 L 10.78125 11.816406 L 11.816406 10.722656 L 14.417969 10.722656 C 15.066406 10.722656 15.792969 10.898438 15.792969 11.824219 Z M 9.316406 13.359375 L 7.3125 13.359375 L 7.3125 12.695312 L 9.101562 12.695312 L 9.101562 12.015625 L 7.3125 12.015625 L 7.3125 11.40625 L 9.355469 11.40625 L 10.246094 12.378906 Z M 12.542969 13.742188 L 11.292969 12.382812 L 12.542969 11.066406 Z M 14.390625 12.257812 L 13.339844 12.257812 L 13.339844 11.40625 L 14.402344 11.40625 C 14.695312 11.40625 14.898438 11.523438 14.898438 11.816406 C 14.898438 12.105469 14.707031 12.257812 14.390625 12.257812 Z M 19.910156 10.722656 L 22.628906 10.722656 L 22.628906 11.414062 L 20.71875 11.414062 L 20.71875 12.019531 L 22.582031 12.019531 L 22.582031 12.703125 L 20.71875 12.703125 L 20.71875 13.367188 L 22.628906 13.367188 L 22.628906 14.0625 L 19.910156 14.0625 Z M 18.863281 12.511719 C 19.042969 12.574219 19.191406 12.691406 19.261719 12.789062 C 19.378906 12.953125 19.394531 13.105469 19.398438 13.398438 L 19.398438 14.0625 L 18.578125 14.0625 L 18.578125 13.644531 C 18.578125 13.441406 18.597656 13.144531 18.445312 12.988281 C 18.328125 12.871094 18.148438 12.84375 17.847656 12.84375 L 16.980469 12.84375 L 16.980469 14.0625 L 16.160156 14.0625 L 16.160156 10.722656 L 18.042969 10.722656 C 18.453125 10.722656 18.753906 10.742188 19.019531 10.878906 C 19.277344 11.03125 19.441406 11.242188 19.441406 11.621094 C 19.441406 12.15625 19.078125 12.425781 18.863281 12.511719 Z M 18.402344 12.085938 C 18.292969 12.152344 18.160156 12.15625 18 12.15625 L 17.011719 12.15625 L 17.011719 11.40625 L 18.011719 11.40625 C 18.160156 11.40625 18.304688 11.410156 18.402344 11.46875 C 18.507812 11.519531 18.570312 11.625 18.570312 11.765625 C 18.570312 11.910156 18.507812 12.023438 18.402344 12.085938 Z M 25.757812 12.300781 C 25.914062 12.460938 26 12.664062 26 13.007812 C 26 13.726562 25.542969 14.0625 24.722656 14.0625 L 23.132812 14.0625 L 23.132812 13.34375 L 24.714844 13.34375 C 24.871094 13.34375 24.980469 13.324219 25.046875 13.261719 C 25.101562 13.210938 25.144531 13.136719 25.144531 13.046875 C 25.144531 12.949219 25.101562 12.871094 25.042969 12.824219 C 24.980469 12.773438 24.894531 12.75 24.753906 12.75 C 23.992188 12.726562 23.039062 12.773438 23.039062 11.71875 C 23.039062 11.234375 23.347656 10.722656 24.203125 10.722656 L 25.835938 10.722656 L 25.835938 11.433594 L 24.339844 11.433594 C 24.195312 11.433594 24.097656 11.4375 24.015625 11.492188 C 23.925781 11.546875 23.894531 11.628906 23.894531 11.734375 C 23.894531 11.859375 23.96875 11.945312 24.070312 11.984375 C 24.15625 12.011719 24.25 12.019531 24.386719 12.019531 L 24.828125 12.03125 C 25.269531 12.042969 25.574219 12.117188 25.757812 12.300781 Z M 28.988281 11.40625 L 27.503906 11.40625 C 27.355469 11.40625 27.257812 11.414062 27.175781 11.46875 C 27.089844 11.519531 27.054688 11.601562 27.054688 11.707031 C 27.054688 11.832031 27.128906 11.917969 27.234375 11.957031 C 27.320312 11.984375 27.414062 11.992188 27.546875 11.992188 L 27.992188 12.003906 C 28.4375 12.015625 28.734375 12.089844 28.914062 12.273438 C 28.949219 12.300781 28.96875 12.328125 28.988281 12.355469 Z M 28.988281 11.40625 "/>
</g>
</svg>
