<?xml version="1.0" encoding="UTF-8" standalone="no"?>
<!DOCTYPE svg PUBLIC "-//W3C//DTD SVG 1.1//EN" "http://www.w3.org/Graphics/SVG/1.1/DTD/svg11.dtd">
<svg width="100%" height="100%" viewBox="0 0 1432 1125" version="1.1" xmlns="http://www.w3.org/2000/svg" xmlns:xlink="http://www.w3.org/1999/xlink" xml:space="preserve" xmlns:serif="http://www.serif.com/" style="fill-rule:evenodd;clip-rule:evenodd;stroke-linejoin:round;stroke-miterlimit:2;">
    <g id="Main">
        <g id="WINTR">
            <path d="M401.2,745.371L353.862,894.792L302.079,745.371L276.633,745.371L226.333,894.792L177.512,745.371L133.721,745.371L209.762,952.492L242.904,952.492L268.054,887.987L289.654,822.004L311.55,887.396L337.296,952.492L370.433,952.492L444.996,745.371L401.2,745.371Z" style="fill:url(#_Linear1);fill-rule:nonzero;"/>
            <rect x="513.621" y="745.371" width="38.758" height="207.121" style="fill:url(#_Linear2);"/>
            <path d="M769.554,745.079L769.554,873.783L668.071,745.371L636.408,745.371L636.408,952.492L675.467,952.492L675.467,812.833L784.35,952.787L784.35,952.492L808.617,952.492L808.617,745.079L769.554,745.079Z" style="fill:url(#_Linear3);fill-rule:nonzero;"/>
            <path d="M876.654,745.371L876.654,780.879L942.342,780.879L942.342,952.492L981.4,952.492L981.4,780.879L1047.09,780.879L1047.09,745.371L876.654,745.371Z" style="fill:url(#_Linear4);fill-rule:nonzero;"/>
            <path d="M1115.42,952.492L1154.48,952.492L1154.48,781.762L1213.95,781.762C1238.51,781.762 1249.46,798.333 1249.46,814.904C1249.46,831.475 1238.81,848.042 1213.95,848.042L1161.36,848.042L1252.42,952.492L1298.87,952.492L1298.87,949.829L1236.15,879.108C1275.5,871.121 1288.52,842.421 1288.52,814.017C1288.52,778.217 1262.78,745.667 1213.95,745.371C1181.11,745.371 1148.27,745.079 1115.42,745.079L1115.42,952.492Z" style="fill:url(#_Linear5);fill-rule:nonzero;"/>
        </g>
        <g id="Logo">
            <path id="Mountain-and-road" serif:id="Mountain and road" d="M688.075,285.342L687.542,285.342L669.625,330.437L588.583,528.517C600.071,551.767 618.033,588.317 625.283,604.062C626.837,607.442 628.863,612.129 630.8,617.433L630.8,617.429C630.804,617.429 664.821,617.129 697.383,620.408C729.946,623.692 737.717,627.512 721.779,631.796L721.783,631.796C640.071,653.008 636.412,664.358 672.813,671.929C710.062,679.683 783.592,673.479 783.592,673.479C768.6,673.192 624.292,666.654 702.067,650.204C750.837,639.887 768.15,632.133 767.371,626.317C767.371,626.312 767.367,626.192 767.308,625.983C767.304,625.95 767.296,625.921 767.283,625.892C767.254,625.792 767.213,625.671 767.154,625.533C767.133,625.492 767.117,625.446 767.096,625.4C765.233,621.358 750.658,605.221 636.8,601.908L675.5,501.783L683.192,517.379L714.671,435.921L714.671,435.925L716.3,431.712L717.921,435.925L717.921,435.921L796.146,638.317C798.092,625.375 803.862,611.462 807.317,603.958C814.558,588.221 832.5,551.712 843.987,528.458L801.875,425.521L762.95,330.383L745.05,285.342L744.521,285.342L716.3,216.362L688.075,285.342Z" style="fill:url(#_Linear6);fill-rule:nonzero;"/>
            <g id="Ski-L" serif:id="Ski L">
                <path d="M376.996,106.533C376.775,106.571 372.171,107.375 368.979,109.454C359.225,116.279 341.454,134.783 358.483,172.371C381.054,222.179 451.192,368.129 468.583,410.675C476.562,431.562 506.687,500.004 517.596,533.262C517.596,533.262 542.496,609.708 551.433,634.608C560.367,659.504 571.579,674.787 579.912,675.933L603.433,666.321L603.467,666.321L626.896,656.487C631.971,649.787 629.096,631.054 617.808,607.129C606.525,583.2 570.075,511.537 570.075,511.537C554.267,480.308 527.179,410.617 518.046,390.204C500.263,347.821 446.654,195.021 427.396,143.842C415.462,112.146 396.042,106.112 382.979,106.112C380.783,106.112 378.767,106.283 376.996,106.533Z" style="fill:url(#_Linear7);fill-rule:nonzero;"/>
                <path d="M559.09,632.715C550.277,608.16 525.54,532.252 525.294,531.49C517.982,509.19 502.498,472.16 490.057,442.406C484.048,428.04 478.861,415.627 476.215,408.702C465.073,381.444 432.99,313.231 404.686,253.048C389.015,219.727 374.211,188.256 366.011,170.16C350.669,136.294 365.036,119.502 375.023,112.485C376.648,111.444 378.998,110.756 380.448,110.419C379.507,110.477 378.582,110.569 377.698,110.69C376.619,110.873 373.39,111.64 371.332,112.952C361.348,119.969 346.982,136.765 362.323,170.627C370.523,188.727 385.323,220.198 400.994,253.519C429.302,313.702 461.382,381.915 472.527,409.173C475.169,416.098 480.361,428.51 486.369,442.877C498.807,472.631 514.29,509.656 521.602,531.96C521.852,532.723 546.586,608.627 555.398,633.185C564.54,658.644 574.448,669.731 579.557,671.523C579.557,671.523 570.177,665.11 559.09,632.715" style="fill:white;fill-rule:nonzero;"/>
            </g>
            <g id="Ski-R" serif:id="Ski R">
                <path d="M1005.2,143.733C985.942,194.917 932.337,347.717 914.55,390.1C905.417,410.504 878.329,480.204 862.521,511.433C862.521,511.433 826.071,583.096 814.787,607.025C803.5,630.946 800.621,649.679 805.704,656.383L829.129,666.217L829.167,666.217L852.687,675.829C861.021,674.683 872.229,659.4 881.162,634.504C890.104,609.604 915.004,533.158 915.004,533.158C925.908,499.9 956.037,431.458 964.008,410.571C981.404,368.021 1051.55,222.071 1074.12,172.267C1091.14,134.679 1073.38,116.175 1063.62,109.346C1060.42,107.271 1055.82,106.462 1055.6,106.425C1053.83,106.179 1051.82,106.008 1049.62,106.008C1036.56,106.008 1017.13,112.042 1005.2,143.733Z" style="fill:url(#_Linear8);fill-rule:nonzero;"/>
                <path d="M873.507,632.609C882.319,608.055 907.057,532.147 907.302,531.384C914.615,509.084 930.098,472.055 942.54,442.301C948.548,427.934 953.736,415.522 956.382,408.597C967.523,381.338 999.607,313.126 1027.91,252.942C1043.58,219.622 1058.39,188.151 1066.59,170.055C1081.93,136.188 1067.56,119.397 1057.57,112.38C1055.95,111.338 1053.6,110.651 1052.15,110.313C1053.09,110.372 1054.02,110.463 1054.9,110.584C1055.98,110.772 1059.21,111.534 1061.27,112.847C1071.25,119.863 1085.62,136.659 1070.27,170.526C1062.07,188.622 1047.27,220.092 1031.6,253.413C1003.29,313.597 971.215,381.809 960.069,409.067C957.427,415.992 952.236,428.405 946.227,442.772C933.79,472.526 918.307,509.551 910.994,531.855C910.744,532.617 886.011,608.522 877.198,633.08C868.057,658.538 858.148,669.626 853.04,671.417C853.04,671.417 862.419,665.005 873.507,632.609" style="fill:white;fill-rule:nonzero;"/>
            </g>
        </g>
    </g>
    <defs>
        <linearGradient id="_Linear1" x1="0" y1="0" x2="1" y2="0" gradientUnits="userSpaceOnUse" gradientTransform="matrix(0.0136646,207.708,-207.708,0.0136646,716.285,745.079)"><stop offset="0" style="stop-color:rgb(119,187,141);stop-opacity:1"/><stop offset="0.55" style="stop-color:rgb(81,142,101);stop-opacity:1"/><stop offset="1" style="stop-color:rgb(66,123,84);stop-opacity:1"/></linearGradient>
        <linearGradient id="_Linear2" x1="0" y1="0" x2="1" y2="0" gradientUnits="userSpaceOnUse" gradientTransform="matrix(0.0136646,207.708,-207.708,0.0136646,716.285,745.079)"><stop offset="0" style="stop-color:rgb(119,187,141);stop-opacity:1"/><stop offset="0.55" style="stop-color:rgb(81,142,101);stop-opacity:1"/><stop offset="1" style="stop-color:rgb(66,123,84);stop-opacity:1"/></linearGradient>
        <linearGradient id="_Linear3" x1="0" y1="0" x2="1" y2="0" gradientUnits="userSpaceOnUse" gradientTransform="matrix(0.0136646,207.708,-207.708,0.0136646,716.285,745.079)"><stop offset="0" style="stop-color:rgb(119,187,141);stop-opacity:1"/><stop offset="0.55" style="stop-color:rgb(81,142,101);stop-opacity:1"/><stop offset="1" style="stop-color:rgb(66,123,84);stop-opacity:1"/></linearGradient>
        <linearGradient id="_Linear4" x1="0" y1="0" x2="1" y2="0" gradientUnits="userSpaceOnUse" gradientTransform="matrix(0.0136646,207.708,-207.708,0.0136646,716.285,745.079)"><stop offset="0" style="stop-color:rgb(119,187,141);stop-opacity:1"/><stop offset="0.55" style="stop-color:rgb(81,142,101);stop-opacity:1"/><stop offset="1" style="stop-color:rgb(66,123,84);stop-opacity:1"/></linearGradient>
        <linearGradient id="_Linear5" x1="0" y1="0" x2="1" y2="0" gradientUnits="userSpaceOnUse" gradientTransform="matrix(0.0136646,207.708,-207.708,0.0136646,716.285,745.079)"><stop offset="0" style="stop-color:rgb(119,187,141);stop-opacity:1"/><stop offset="0.55" style="stop-color:rgb(81,142,101);stop-opacity:1"/><stop offset="1" style="stop-color:rgb(66,123,84);stop-opacity:1"/></linearGradient>
        <linearGradient id="_Linear6" x1="0" y1="0" x2="1" y2="0" gradientUnits="userSpaceOnUse" gradientTransform="matrix(-0.0136646,565.41,-441.545,-0.010671,716.299,110.419)"><stop offset="0" style="stop-color:rgb(119,187,141);stop-opacity:1"/><stop offset="0.55" style="stop-color:rgb(81,142,101);stop-opacity:1"/><stop offset="1" style="stop-color:rgb(66,123,84);stop-opacity:1"/></linearGradient>
        <linearGradient id="_Linear7" x1="0" y1="0" x2="1" y2="0" gradientUnits="userSpaceOnUse" gradientTransform="matrix(-0.0136646,565.41,-441.545,-0.010671,716.299,110.419)"><stop offset="0" style="stop-color:rgb(119,187,141);stop-opacity:1"/><stop offset="0.55" style="stop-color:rgb(81,142,101);stop-opacity:1"/><stop offset="1" style="stop-color:rgb(66,123,84);stop-opacity:1"/></linearGradient>
        <linearGradient id="_Linear8" x1="0" y1="0" x2="1" y2="0" gradientUnits="userSpaceOnUse" gradientTransform="matrix(-0.0136646,565.41,-441.545,-0.010671,716.299,110.419)"><stop offset="0" style="stop-color:rgb(119,187,141);stop-opacity:1"/><stop offset="0.55" style="stop-color:rgb(81,142,101);stop-opacity:1"/><stop offset="1" style="stop-color:rgb(66,123,84);stop-opacity:1"/></linearGradient>
    </defs>
</svg>
