<?xml version="1.0" encoding="UTF-8"?>
<svg xmlns="http://www.w3.org/2000/svg" xmlns:xlink="http://www.w3.org/1999/xlink" width="29pt" height="19pt" viewBox="0 0 29 19" version="1.1">
<g id="surface1">
<path style=" stroke:none;fill-rule:nonzero;fill:rgb(8.627451%,21.176471%,43.529412%);fill-opacity:1;" d="M 1.488281 0 L 27.511719 0 C 28.335938 0 29 0.679688 29 1.519531 L 29 17.480469 C 29 18.320312 28.335938 19 27.511719 19 L 1.488281 19 C 0.664062 19 0 18.320312 0 17.480469 L 0 1.519531 C 0 0.679688 0.664062 0 1.488281 0 Z M 1.488281 0 "/>
<path style=" stroke:none;fill-rule:nonzero;fill:rgb(85.098039%,13.333333%,16.470588%);fill-opacity:1;" d="M 16.695312 9.5 C 16.695312 13.265625 13.707031 16.320312 10.019531 16.320312 C 6.332031 16.320312 3.347656 13.265625 3.347656 9.5 C 3.347656 5.734375 6.332031 2.679688 10.019531 2.679688 C 13.707031 2.679688 16.695312 5.734375 16.695312 9.5 "/>
<path style=" stroke:none;fill-rule:nonzero;fill:rgb(93.333333%,62.352941%,17.647059%);fill-opacity:1;" d="M 18.980469 2.679688 C 17.253906 2.679688 15.683594 3.347656 14.5 4.445312 C 14.257812 4.667969 14.03125 4.910156 13.824219 5.167969 L 15.175781 5.167969 C 15.359375 5.394531 15.527344 5.636719 15.683594 5.890625 L 13.316406 5.890625 C 13.175781 6.121094 13.046875 6.363281 12.933594 6.609375 L 16.066406 6.609375 C 16.175781 6.847656 16.269531 7.085938 16.351562 7.332031 L 12.648438 7.332031 C 12.570312 7.570312 12.507812 7.8125 12.457031 8.054688 L 16.542969 8.054688 C 16.644531 8.53125 16.695312 9.015625 16.695312 9.5 C 16.695312 10.257812 16.574219 10.984375 16.351562 11.667969 L 12.648438 11.667969 C 12.730469 11.914062 12.824219 12.152344 12.933594 12.390625 L 16.066406 12.390625 C 15.953125 12.636719 15.824219 12.878906 15.683594 13.113281 L 13.316406 13.113281 C 13.472656 13.363281 13.640625 13.605469 13.824219 13.832031 L 15.171875 13.832031 C 14.964844 14.089844 14.742188 14.332031 14.5 14.554688 C 15.683594 15.652344 17.253906 16.320312 18.980469 16.320312 C 22.664062 16.320312 25.652344 13.265625 25.652344 9.5 C 25.652344 5.734375 22.664062 2.679688 18.980469 2.679688 "/>
<path style=" stroke:none;fill-rule:nonzero;fill:rgb(0%,0%,0%);fill-opacity:1;" d="M 24.765625 13.300781 C 24.765625 13.179688 24.859375 13.082031 24.980469 13.082031 C 25.097656 13.082031 25.195312 13.179688 25.195312 13.300781 C 25.195312 13.425781 25.097656 13.523438 24.980469 13.523438 C 24.859375 13.523438 24.765625 13.425781 24.765625 13.300781 Z M 24.980469 13.46875 C 25.070312 13.46875 25.144531 13.394531 25.144531 13.300781 C 25.144531 13.210938 25.070312 13.136719 24.980469 13.136719 C 24.890625 13.136719 24.816406 13.210938 24.816406 13.300781 C 24.816406 13.394531 24.890625 13.46875 24.980469 13.46875 Z M 24.949219 13.398438 L 24.90625 13.398438 L 24.90625 13.207031 L 24.988281 13.207031 C 25.003906 13.207031 25.019531 13.207031 25.035156 13.214844 C 25.050781 13.226562 25.058594 13.246094 25.058594 13.265625 C 25.058594 13.285156 25.046875 13.304688 25.027344 13.3125 L 25.0625 13.398438 L 25.011719 13.398438 L 24.984375 13.324219 L 24.949219 13.324219 Z M 24.949219 13.289062 L 24.976562 13.289062 C 24.984375 13.289062 24.992188 13.289062 25.003906 13.285156 C 25.007812 13.28125 25.011719 13.273438 25.011719 13.261719 C 25.011719 13.257812 25.007812 13.246094 25.003906 13.242188 C 24.996094 13.238281 24.984375 13.238281 24.972656 13.238281 L 24.949219 13.238281 Z M 8.460938 10.246094 C 8.386719 10.238281 8.351562 10.234375 8.300781 10.234375 C 7.890625 10.234375 7.679688 10.378906 7.679688 10.664062 C 7.679688 10.839844 7.78125 10.949219 7.941406 10.949219 C 8.238281 10.949219 8.449219 10.664062 8.460938 10.246094 Z M 8.988281 11.5 L 8.386719 11.5 L 8.402344 11.210938 C 8.21875 11.441406 7.976562 11.550781 7.644531 11.550781 C 7.25 11.550781 6.980469 11.234375 6.980469 10.78125 C 6.980469 10.09375 7.449219 9.695312 8.253906 9.695312 C 8.335938 9.695312 8.441406 9.703125 8.546875 9.71875 C 8.570312 9.625 8.578125 9.585938 8.578125 9.535156 C 8.578125 9.347656 8.449219 9.277344 8.113281 9.277344 C 7.757812 9.273438 7.464844 9.367188 7.34375 9.40625 C 7.351562 9.359375 7.445312 8.773438 7.445312 8.773438 C 7.804688 8.664062 8.042969 8.625 8.3125 8.625 C 8.933594 8.625 9.265625 8.910156 9.265625 9.449219 C 9.265625 9.59375 9.242188 9.773438 9.203125 10.007812 C 9.140625 10.414062 9.007812 11.289062 8.988281 11.5 Z M 6.675781 11.5 L 5.953125 11.5 L 6.367188 8.839844 L 5.441406 11.5 L 4.949219 11.5 L 4.886719 8.855469 L 4.449219 11.5 L 3.773438 11.5 L 4.339844 8.039062 L 5.378906 8.039062 L 5.445312 9.976562 L 6.078125 8.039062 L 7.238281 8.039062 L 6.675781 11.5 M 19.875 10.246094 C 19.800781 10.238281 19.765625 10.234375 19.714844 10.234375 C 19.304688 10.234375 19.097656 10.378906 19.097656 10.664062 C 19.097656 10.839844 19.195312 10.949219 19.355469 10.949219 C 19.652344 10.949219 19.863281 10.664062 19.875 10.246094 Z M 20.402344 11.5 L 19.800781 11.5 L 19.816406 11.210938 C 19.632812 11.441406 19.390625 11.550781 19.058594 11.550781 C 18.664062 11.550781 18.394531 11.234375 18.394531 10.78125 C 18.394531 10.09375 18.863281 9.695312 19.667969 9.695312 C 19.75 9.695312 19.855469 9.703125 19.960938 9.71875 C 19.984375 9.625 19.992188 9.585938 19.992188 9.535156 C 19.992188 9.347656 19.863281 9.277344 19.527344 9.277344 C 19.171875 9.273438 18.878906 9.367188 18.757812 9.40625 C 18.765625 9.359375 18.859375 8.773438 18.859375 8.773438 C 19.222656 8.664062 19.457031 8.625 19.726562 8.625 C 20.347656 8.625 20.679688 8.910156 20.679688 9.449219 C 20.679688 9.59375 20.65625 9.773438 20.617188 10.007812 C 20.554688 10.414062 20.421875 11.289062 20.402344 11.5 Z M 12.207031 11.457031 C 12.011719 11.523438 11.855469 11.550781 11.6875 11.550781 C 11.316406 11.550781 11.117188 11.332031 11.117188 10.929688 C 11.109375 10.808594 11.167969 10.480469 11.214844 10.179688 C 11.257812 9.917969 11.53125 8.261719 11.53125 8.261719 L 12.25 8.261719 L 12.164062 8.6875 L 12.601562 8.6875 L 12.503906 9.363281 L 12.066406 9.363281 C 11.980469 9.898438 11.863281 10.566406 11.863281 10.652344 C 11.863281 10.796875 11.9375 10.863281 12.109375 10.863281 C 12.191406 10.863281 12.257812 10.851562 12.304688 10.835938 L 12.207031 11.457031 M 14.417969 11.433594 C 14.167969 11.511719 13.929688 11.550781 13.679688 11.550781 C 12.871094 11.546875 12.453125 11.117188 12.453125 10.292969 C 12.453125 9.332031 12.984375 8.625 13.710938 8.625 C 14.304688 8.625 14.683594 9.019531 14.683594 9.640625 C 14.683594 9.847656 14.660156 10.050781 14.597656 10.335938 L 13.160156 10.335938 C 13.113281 10.742188 13.367188 10.914062 13.789062 10.914062 C 14.046875 10.914062 14.277344 10.859375 14.535156 10.734375 Z M 14.011719 9.765625 C 14.015625 9.707031 14.089844 9.265625 13.675781 9.265625 C 13.449219 9.265625 13.285156 9.445312 13.21875 9.765625 Z M 9.421875 9.578125 C 9.421875 9.933594 9.59375 10.175781 9.976562 10.363281 C 10.269531 10.503906 10.3125 10.542969 10.3125 10.671875 C 10.3125 10.847656 10.183594 10.925781 9.898438 10.925781 C 9.683594 10.925781 9.480469 10.894531 9.25 10.816406 C 9.25 10.816406 9.152344 11.4375 9.148438 11.464844 C 9.3125 11.503906 9.460938 11.535156 9.902344 11.550781 C 10.667969 11.550781 11.019531 11.25 11.019531 10.609375 C 11.019531 10.222656 10.875 9.996094 10.511719 9.824219 C 10.207031 9.683594 10.171875 9.648438 10.171875 9.519531 C 10.171875 9.367188 10.292969 9.289062 10.527344 9.289062 C 10.667969 9.289062 10.863281 9.304688 11.046875 9.332031 L 11.148438 8.679688 C 10.960938 8.648438 10.679688 8.625 10.511719 8.625 C 9.703125 8.625 9.421875 9.058594 9.421875 9.578125 M 17.941406 8.699219 C 18.140625 8.699219 18.328125 8.75 18.589844 8.886719 L 18.707031 8.132812 C 18.601562 8.089844 18.226562 7.839844 17.910156 7.839844 C 17.425781 7.839844 17.015625 8.085938 16.726562 8.492188 C 16.308594 8.351562 16.132812 8.636719 15.921875 8.925781 L 15.734375 8.96875 C 15.75 8.875 15.761719 8.78125 15.757812 8.6875 L 15.089844 8.6875 C 15 9.558594 14.839844 10.441406 14.714844 11.3125 L 14.679688 11.5 L 15.40625 11.5 C 15.527344 10.699219 15.59375 10.183594 15.632812 9.835938 L 15.90625 9.679688 C 15.945312 9.523438 16.074219 9.472656 16.332031 9.476562 C 16.296875 9.667969 16.277344 9.863281 16.277344 10.054688 C 16.277344 10.976562 16.765625 11.550781 17.546875 11.550781 C 17.746094 11.550781 17.917969 11.523438 18.183594 11.449219 L 18.3125 10.660156 C 18.074219 10.78125 17.875 10.835938 17.695312 10.835938 C 17.277344 10.835938 17.019531 10.519531 17.019531 9.992188 C 17.019531 9.230469 17.398438 8.699219 17.941406 8.699219 "/>
<path style=" stroke:none;fill-rule:nonzero;fill:rgb(100%,100%,100%);fill-opacity:1;" d="M 6.886719 11.296875 L 6.160156 11.296875 L 6.578125 8.636719 L 5.648438 11.296875 L 5.15625 11.296875 L 5.09375 8.652344 L 4.660156 11.296875 L 3.980469 11.296875 L 4.546875 7.835938 L 5.589844 7.835938 L 5.617188 9.976562 L 6.320312 7.835938 L 7.445312 7.835938 L 6.886719 11.296875 "/>
<path style=" stroke:none;fill-rule:nonzero;fill:rgb(0%,0%,0%);fill-opacity:1;" d="M 24.074219 8.039062 L 23.914062 9.039062 C 23.714844 8.773438 23.503906 8.582031 23.222656 8.582031 C 22.855469 8.582031 22.523438 8.863281 22.304688 9.28125 C 22.003906 9.21875 21.6875 9.109375 21.6875 9.109375 C 21.714844 8.878906 21.722656 8.734375 21.71875 8.6875 L 21.054688 8.6875 C 20.964844 9.558594 20.804688 10.441406 20.675781 11.3125 L 20.644531 11.5 L 21.367188 11.5 C 21.46875 10.851562 21.542969 10.3125 21.597656 9.882812 C 21.84375 9.65625 21.96875 9.457031 22.21875 9.46875 C 22.109375 9.742188 22.042969 10.058594 22.042969 10.382812 C 22.042969 11.085938 22.390625 11.550781 22.917969 11.550781 C 23.183594 11.550781 23.386719 11.457031 23.585938 11.238281 L 23.550781 11.5 L 24.238281 11.5 L 24.789062 8.039062 Z M 23.167969 10.851562 C 22.921875 10.851562 22.796875 10.664062 22.796875 10.296875 C 22.796875 9.742188 23.03125 9.351562 23.359375 9.351562 C 23.609375 9.351562 23.742188 9.542969 23.742188 9.902344 C 23.742188 10.460938 23.507812 10.851562 23.167969 10.851562 Z M 23.167969 10.851562 "/>
<path style=" stroke:none;fill-rule:nonzero;fill:rgb(100%,100%,100%);fill-opacity:1;" d="M 8.667969 10.042969 C 8.59375 10.03125 8.558594 10.03125 8.507812 10.03125 C 8.097656 10.03125 7.890625 10.175781 7.890625 10.457031 C 7.890625 10.632812 7.992188 10.746094 8.148438 10.746094 C 8.445312 10.746094 8.65625 10.457031 8.667969 10.042969 Z M 9.195312 11.296875 L 8.597656 11.296875 L 8.609375 11.003906 C 8.425781 11.234375 8.183594 11.34375 7.851562 11.34375 C 7.457031 11.34375 7.1875 11.03125 7.1875 10.574219 C 7.1875 9.890625 7.65625 9.492188 8.460938 9.492188 C 8.542969 9.492188 8.648438 9.5 8.757812 9.511719 C 8.777344 9.417969 8.785156 9.378906 8.785156 9.328125 C 8.785156 9.144531 8.660156 9.074219 8.320312 9.074219 C 7.964844 9.070312 7.671875 9.160156 7.554688 9.199219 C 7.5625 9.152344 7.652344 8.566406 7.652344 8.566406 C 8.015625 8.460938 8.253906 8.417969 8.519531 8.417969 C 9.144531 8.417969 9.472656 8.703125 9.472656 9.242188 C 9.472656 9.390625 9.449219 9.566406 9.414062 9.800781 C 9.351562 10.207031 9.214844 11.082031 9.195312 11.296875 Z M 18.914062 7.929688 L 18.796875 8.679688 C 18.539062 8.546875 18.351562 8.492188 18.148438 8.492188 C 17.609375 8.492188 17.230469 9.027344 17.230469 9.789062 C 17.230469 10.3125 17.484375 10.632812 17.90625 10.632812 C 18.082031 10.632812 18.28125 10.574219 18.519531 10.453125 L 18.394531 11.242188 C 18.125 11.316406 17.953125 11.34375 17.753906 11.34375 C 16.972656 11.34375 16.488281 10.769531 16.488281 9.851562 C 16.488281 8.613281 17.160156 7.75 18.117188 7.75 C 18.433594 7.75 18.808594 7.886719 18.914062 7.929688 M 20.085938 10.042969 C 20.007812 10.03125 19.976562 10.03125 19.921875 10.03125 C 19.511719 10.03125 19.304688 10.175781 19.304688 10.457031 C 19.304688 10.632812 19.40625 10.746094 19.5625 10.746094 C 19.859375 10.746094 20.070312 10.457031 20.085938 10.042969 Z M 20.609375 11.296875 L 20.011719 11.296875 L 20.023438 11.003906 C 19.839844 11.234375 19.597656 11.34375 19.265625 11.34375 C 18.871094 11.34375 18.601562 11.03125 18.601562 10.574219 C 18.601562 9.890625 19.070312 9.492188 19.875 9.492188 C 19.957031 9.492188 20.0625 9.5 20.171875 9.511719 C 20.191406 9.417969 20.199219 9.378906 20.199219 9.328125 C 20.199219 9.144531 20.074219 9.074219 19.734375 9.074219 C 19.378906 9.070312 19.085938 9.160156 18.96875 9.199219 C 18.976562 9.152344 19.066406 8.566406 19.066406 8.566406 C 19.429688 8.460938 19.667969 8.417969 19.933594 8.417969 C 20.558594 8.417969 20.886719 8.703125 20.886719 9.242188 C 20.886719 9.390625 20.863281 9.566406 20.828125 9.800781 C 20.765625 10.207031 20.628906 11.082031 20.609375 11.296875 Z M 12.417969 11.253906 C 12.21875 11.316406 12.0625 11.34375 11.898438 11.34375 C 11.527344 11.34375 11.324219 11.125 11.324219 10.726562 C 11.320312 10.601562 11.378906 10.273438 11.421875 9.976562 C 11.464844 9.710938 11.738281 8.054688 11.738281 8.054688 L 12.457031 8.054688 L 12.375 8.480469 L 12.742188 8.480469 L 12.644531 9.15625 L 12.273438 9.15625 C 12.191406 9.691406 12.070312 10.359375 12.070312 10.449219 C 12.070312 10.59375 12.144531 10.65625 12.316406 10.65625 C 12.398438 10.65625 12.464844 10.648438 12.511719 10.628906 L 12.417969 11.253906 M 14.625 11.230469 C 14.378906 11.308594 14.140625 11.34375 13.886719 11.34375 C 13.078125 11.34375 12.660156 10.914062 12.660156 10.089844 C 12.660156 9.125 13.195312 8.417969 13.921875 8.417969 C 14.515625 8.417969 14.894531 8.816406 14.894531 9.4375 C 14.894531 9.644531 14.867188 9.84375 14.804688 10.128906 L 13.371094 10.128906 C 13.320312 10.539062 13.578125 10.707031 13.996094 10.707031 C 14.253906 10.707031 14.488281 10.652344 14.746094 10.53125 Z M 14.21875 9.5625 C 14.226562 9.503906 14.296875 9.058594 13.886719 9.058594 C 13.65625 9.058594 13.492188 9.238281 13.425781 9.5625 Z M 9.632812 9.371094 C 9.632812 9.726562 9.800781 9.972656 10.183594 10.15625 C 10.476562 10.296875 10.523438 10.339844 10.523438 10.46875 C 10.523438 10.644531 10.394531 10.722656 10.105469 10.722656 C 9.890625 10.722656 9.6875 10.6875 9.457031 10.609375 C 9.457031 10.609375 9.363281 11.230469 9.359375 11.261719 C 9.523438 11.296875 9.667969 11.332031 10.113281 11.34375 C 10.875 11.34375 11.230469 11.046875 11.230469 10.402344 C 11.230469 10.015625 11.082031 9.789062 10.71875 9.621094 C 10.414062 9.476562 10.378906 9.445312 10.378906 9.3125 C 10.378906 9.160156 10.5 9.082031 10.734375 9.082031 C 10.875 9.082031 11.070312 9.101562 11.253906 9.125 L 11.359375 8.472656 C 11.171875 8.441406 10.886719 8.417969 10.71875 8.417969 C 9.910156 8.417969 9.628906 8.851562 9.632812 9.371094 M 24.445312 11.296875 L 23.761719 11.296875 L 23.792969 11.035156 C 23.59375 11.25 23.390625 11.34375 23.125 11.34375 C 22.601562 11.34375 22.25 10.878906 22.25 10.175781 C 22.25 9.242188 22.792969 8.453125 23.429688 8.453125 C 23.710938 8.453125 23.925781 8.570312 24.121094 8.835938 L 24.28125 7.835938 L 24.996094 7.835938 Z M 23.378906 10.644531 C 23.714844 10.644531 23.953125 10.253906 23.953125 9.695312 C 23.953125 9.339844 23.816406 9.144531 23.566406 9.144531 C 23.238281 9.144531 23.003906 9.539062 23.003906 10.089844 C 23.003906 10.457031 23.128906 10.644531 23.378906 10.644531 Z M 21.265625 8.480469 C 21.171875 9.351562 21.011719 10.234375 20.886719 11.105469 L 20.851562 11.296875 L 21.578125 11.296875 C 21.835938 9.574219 21.898438 9.238281 22.304688 9.28125 C 22.371094 8.929688 22.492188 8.621094 22.582031 8.464844 C 22.277344 8.398438 22.109375 8.574219 21.886719 8.910156 C 21.902344 8.765625 21.9375 8.625 21.929688 8.480469 L 21.265625 8.480469 M 15.300781 8.480469 C 15.207031 9.351562 15.046875 10.234375 14.921875 11.105469 L 14.886719 11.296875 L 15.613281 11.296875 C 15.871094 9.574219 15.933594 9.238281 16.339844 9.28125 C 16.40625 8.929688 16.527344 8.621094 16.617188 8.464844 C 16.3125 8.398438 16.144531 8.574219 15.921875 8.910156 C 15.9375 8.765625 15.972656 8.625 15.964844 8.480469 L 15.300781 8.480469 M 24.765625 11.074219 C 24.765625 10.953125 24.859375 10.855469 24.980469 10.855469 C 25.097656 10.855469 25.195312 10.953125 25.195312 11.074219 C 25.195312 11.195312 25.097656 11.296875 24.980469 11.296875 C 24.859375 11.296875 24.765625 11.195312 24.765625 11.074219 Z M 24.980469 11.242188 C 25.070312 11.242188 25.144531 11.167969 25.144531 11.074219 C 25.144531 10.984375 25.070312 10.90625 24.980469 10.90625 C 24.890625 10.90625 24.816406 10.984375 24.816406 11.074219 C 24.816406 11.167969 24.890625 11.242188 24.980469 11.242188 Z M 24.949219 11.171875 L 24.90625 11.171875 L 24.90625 10.976562 L 24.988281 10.976562 C 25.003906 10.976562 25.019531 10.976562 25.035156 10.988281 C 25.050781 11 25.058594 11.015625 25.058594 11.035156 C 25.058594 11.058594 25.046875 11.078125 25.027344 11.085938 L 25.0625 11.171875 L 25.011719 11.171875 L 24.984375 11.09375 L 24.949219 11.09375 Z M 24.949219 11.0625 L 24.976562 11.0625 C 24.984375 11.0625 24.992188 11.0625 25.003906 11.058594 C 25.007812 11.054688 25.011719 11.042969 25.011719 11.035156 C 25.011719 11.027344 25.007812 11.019531 25.003906 11.015625 C 24.996094 11.011719 24.980469 11.011719 24.972656 11.011719 L 24.949219 11.011719 Z M 24.949219 11.0625 "/>
</g>
</svg>
