<?xml version="1.0" encoding="UTF-8"?>
<svg xmlns="http://www.w3.org/2000/svg" xmlns:xlink="http://www.w3.org/1999/xlink" width="69pt" height="19pt" viewBox="0 0 69 19" version="1.1">
<g id="surface1">
<path style=" stroke:none;fill-rule:evenodd;fill:rgb(19.607843%,21.176471%,30.588235%);fill-opacity:1;" d="M 2.777344 0 L 66.222656 0 C 67.757812 0 69 1.246094 69 2.78125 L 69 16.21875 C 69 17.753906 67.757812 19 66.222656 19 L 2.777344 19 C 1.242188 19 0 17.753906 0 16.21875 L 0 2.78125 C 0 1.246094 1.242188 0 2.777344 0 Z M 2.777344 0 "/>
<path style=" stroke:none;fill-rule:evenodd;fill:rgb(100%,100%,100%);fill-opacity:1;" d="M 33.066406 12.339844 L 32.390625 12.339844 L 32.914062 11.042969 L 31.871094 8.40625 L 32.585938 8.40625 L 33.242188 10.199219 L 33.902344 8.40625 L 34.617188 8.40625 Z M 30.464844 11.207031 C 30.230469 11.207031 29.992188 11.121094 29.773438 10.949219 L 29.773438 11.140625 L 29.074219 11.140625 L 29.074219 7.210938 L 29.773438 7.210938 L 29.773438 8.59375 C 29.992188 8.429688 30.230469 8.34375 30.464844 8.34375 C 31.199219 8.34375 31.699219 8.933594 31.699219 9.773438 C 31.699219 10.617188 31.199219 11.207031 30.464844 11.207031 Z M 30.316406 8.945312 C 30.128906 8.945312 29.9375 9.027344 29.773438 9.191406 L 29.773438 10.359375 C 29.9375 10.523438 30.128906 10.605469 30.316406 10.605469 C 30.710938 10.605469 30.984375 10.265625 30.984375 9.773438 C 30.984375 9.28125 30.710938 8.945312 30.316406 8.945312 Z M 26.242188 10.949219 C 26.03125 11.121094 25.789062 11.207031 25.550781 11.207031 C 24.824219 11.207031 24.316406 10.617188 24.316406 9.773438 C 24.316406 8.933594 24.824219 8.34375 25.550781 8.34375 C 25.789062 8.34375 26.03125 8.429688 26.242188 8.59375 L 26.242188 7.210938 L 26.949219 7.210938 L 26.949219 11.140625 L 26.242188 11.140625 Z M 26.242188 9.191406 C 26.085938 9.027344 25.894531 8.945312 25.703125 8.945312 C 25.304688 8.945312 25.03125 9.28125 25.03125 9.773438 C 25.03125 10.265625 25.304688 10.605469 25.703125 10.605469 C 25.894531 10.605469 26.085938 10.523438 26.242188 10.359375 Z M 22.082031 9.964844 C 22.125 10.382812 22.453125 10.664062 22.910156 10.664062 C 23.164062 10.664062 23.441406 10.574219 23.726562 10.410156 L 23.726562 10.992188 C 23.414062 11.136719 23.101562 11.207031 22.796875 11.207031 C 21.972656 11.207031 21.394531 10.605469 21.394531 9.753906 C 21.394531 8.925781 21.960938 8.34375 22.742188 8.34375 C 23.457031 8.34375 23.945312 8.90625 23.945312 9.710938 C 23.945312 9.785156 23.945312 9.875 23.933594 9.964844 Z M 22.714844 8.882812 C 22.375 8.882812 22.113281 9.136719 22.082031 9.511719 L 23.273438 9.511719 C 23.25 9.140625 23.027344 8.882812 22.714844 8.882812 Z M 20.238281 9.316406 L 20.238281 11.140625 L 19.539062 11.140625 L 19.539062 8.40625 L 20.238281 8.40625 L 20.238281 8.679688 C 20.4375 8.460938 20.675781 8.34375 20.910156 8.34375 C 20.988281 8.34375 21.066406 8.347656 21.140625 8.371094 L 21.140625 8.992188 C 21.066406 8.972656 20.976562 8.960938 20.894531 8.960938 C 20.667969 8.960938 20.421875 9.085938 20.238281 9.316406 Z M 17.121094 9.964844 C 17.164062 10.382812 17.492188 10.664062 17.949219 10.664062 C 18.203125 10.664062 18.480469 10.574219 18.765625 10.410156 L 18.765625 10.992188 C 18.453125 11.136719 18.140625 11.207031 17.835938 11.207031 C 17.011719 11.207031 16.433594 10.605469 16.433594 9.753906 C 16.433594 8.925781 17 8.34375 17.78125 8.34375 C 18.496094 8.34375 18.984375 8.90625 18.984375 9.710938 C 18.984375 9.785156 18.984375 9.875 18.972656 9.964844 Z M 17.753906 8.882812 C 17.414062 8.882812 17.152344 9.136719 17.121094 9.511719 L 18.3125 9.511719 C 18.289062 9.140625 18.066406 8.882812 17.753906 8.882812 Z M 14.679688 11.140625 L 14.121094 9.28125 L 13.570312 11.140625 L 12.941406 11.140625 L 12.003906 8.40625 L 12.703125 8.40625 L 13.253906 10.265625 L 13.804688 8.40625 L 14.4375 8.40625 L 14.988281 10.265625 L 15.542969 8.40625 L 16.242188 8.40625 L 15.308594 11.140625 Z M 10.40625 11.207031 C 9.582031 11.207031 9 10.609375 9 9.773438 C 9 8.933594 9.582031 8.34375 10.40625 8.34375 C 11.230469 8.34375 11.8125 8.933594 11.8125 9.773438 C 11.8125 10.609375 11.230469 11.207031 10.40625 11.207031 Z M 10.40625 8.925781 C 9.996094 8.925781 9.714844 9.273438 9.714844 9.773438 C 9.714844 10.277344 9.996094 10.621094 10.40625 10.621094 C 10.8125 10.621094 11.09375 10.277344 11.09375 9.773438 C 11.09375 9.273438 10.8125 8.925781 10.40625 8.925781 Z M 7.335938 9.792969 L 6.710938 9.792969 L 6.710938 11.140625 L 6.011719 11.140625 L 6.011719 7.378906 L 7.335938 7.378906 C 8.101562 7.378906 8.648438 7.878906 8.648438 8.589844 C 8.648438 9.300781 8.101562 9.792969 7.335938 9.792969 Z M 7.238281 7.949219 L 6.710938 7.949219 L 6.710938 9.222656 L 7.238281 9.222656 C 7.644531 9.222656 7.925781 8.964844 7.925781 8.589844 C 7.925781 8.207031 7.644531 7.949219 7.238281 7.949219 Z M 7.238281 7.949219 "/>
<path style=" stroke:none;fill-rule:evenodd;fill:rgb(100%,100%,100%);fill-opacity:1;" d="M 63.363281 10.132812 L 60.003906 10.132812 C 60.082031 10.9375 60.671875 11.175781 61.339844 11.175781 C 62.019531 11.175781 62.554688 11.03125 63.023438 10.796875 L 63.023438 12.179688 C 62.558594 12.4375 61.941406 12.625 61.121094 12.625 C 59.453125 12.625 58.28125 11.578125 58.28125 9.507812 C 58.28125 7.757812 59.273438 6.371094 60.90625 6.371094 C 62.535156 6.371094 63.386719 7.757812 63.386719 9.515625 C 63.386719 9.683594 63.371094 10.042969 63.363281 10.132812 Z M 60.894531 7.769531 C 60.464844 7.769531 59.988281 8.09375 59.988281 8.867188 L 61.761719 8.867188 C 61.761719 8.09375 61.316406 7.769531 60.894531 7.769531 Z M 55.5625 12.625 C 54.960938 12.625 54.59375 12.371094 54.347656 12.1875 L 54.34375 14.132812 L 52.628906 14.496094 L 52.628906 6.484375 L 54.140625 6.484375 L 54.226562 6.910156 C 54.464844 6.6875 54.898438 6.371094 55.574219 6.371094 C 56.777344 6.371094 57.910156 7.457031 57.910156 9.453125 C 57.910156 11.636719 56.789062 12.625 55.5625 12.625 Z M 55.164062 7.890625 C 54.769531 7.890625 54.523438 8.035156 54.34375 8.230469 L 54.351562 10.78125 C 54.519531 10.960938 54.761719 11.105469 55.164062 11.105469 C 55.796875 11.105469 56.222656 10.417969 56.222656 9.492188 C 56.222656 8.59375 55.789062 7.890625 55.164062 7.890625 Z M 50.207031 6.484375 L 51.929688 6.484375 L 51.929688 12.5 L 50.207031 12.5 Z M 50.207031 4.5625 L 51.929688 4.195312 L 51.929688 5.59375 L 50.207031 5.960938 Z M 48.429688 8.421875 L 48.429688 12.5 L 46.714844 12.5 L 46.714844 6.484375 L 48.195312 6.484375 L 48.304688 6.992188 C 48.707031 6.253906 49.507812 6.402344 49.734375 6.484375 L 49.734375 8.0625 C 49.515625 7.992188 48.832031 7.890625 48.429688 8.421875 Z M 44.808594 10.390625 C 44.808594 11.402344 45.890625 11.085938 46.109375 11 L 46.109375 12.394531 C 45.882812 12.519531 45.46875 12.625 44.90625 12.625 C 43.886719 12.625 43.125 11.875 43.125 10.855469 L 43.132812 5.351562 L 44.804688 4.996094 L 44.808594 6.484375 L 46.109375 6.484375 L 46.109375 7.949219 L 44.808594 7.949219 Z M 42.726562 10.683594 C 42.726562 11.917969 41.742188 12.625 40.316406 12.625 C 39.726562 12.625 39.078125 12.507812 38.441406 12.234375 L 38.441406 10.59375 C 39.019531 10.910156 39.75 11.144531 40.320312 11.144531 C 40.703125 11.144531 40.976562 11.039062 40.976562 10.722656 C 40.976562 9.902344 38.371094 10.210938 38.371094 8.3125 C 38.371094 7.097656 39.296875 6.371094 40.6875 6.371094 C 41.257812 6.371094 41.824219 6.457031 42.394531 6.683594 L 42.394531 8.300781 C 41.871094 8.019531 41.210938 7.859375 40.6875 7.859375 C 40.328125 7.859375 40.105469 7.960938 40.105469 8.230469 C 40.105469 9.003906 42.726562 8.636719 42.726562 10.683594 Z M 42.726562 10.683594 "/>
</g>
</svg>
