<?xml version="1.0" encoding="UTF-8"?>
<svg xmlns="http://www.w3.org/2000/svg" xmlns:xlink="http://www.w3.org/1999/xlink" width="29pt" height="19pt" viewBox="0 0 29 19" version="1.1">
<g id="surface1">
<path style=" stroke:none;fill-rule:nonzero;fill:rgb(5.490196%,27.058824%,58.431373%);fill-opacity:1;" d="M 1.488281 0 L 27.511719 0 C 28.335938 0 29 0.679688 29 1.519531 L 29 17.480469 C 29 18.320312 28.335938 19 27.511719 19 L 1.488281 19 C 0.664062 19 0 18.320312 0 17.480469 L 0 1.519531 C 0 0.679688 0.664062 0 1.488281 0 Z M 1.488281 0 "/>
<path style=" stroke:none;fill-rule:nonzero;fill:rgb(100%,100%,100%);fill-opacity:1;" d="M 10.902344 13.25 L 12.140625 5.8125 L 14.125 5.8125 L 12.882812 13.25 Z M 20.050781 5.972656 C 19.660156 5.824219 19.042969 5.660156 18.273438 5.660156 C 16.3125 5.660156 14.933594 6.667969 14.921875 8.117188 C 14.910156 9.183594 15.90625 9.78125 16.660156 10.136719 C 17.429688 10.5 17.691406 10.734375 17.6875 11.058594 C 17.683594 11.558594 17.070312 11.785156 16.5 11.785156 C 15.707031 11.785156 15.285156 11.671875 14.632812 11.394531 L 14.375 11.277344 L 14.097656 12.941406 C 14.5625 13.148438 15.417969 13.328125 16.308594 13.339844 C 18.394531 13.339844 19.746094 12.34375 19.761719 10.796875 C 19.769531 9.953125 19.242188 9.308594 18.097656 8.777344 C 17.402344 8.433594 16.980469 8.203125 16.984375 7.855469 C 16.984375 7.546875 17.34375 7.214844 18.121094 7.214844 C 18.769531 7.203125 19.238281 7.347656 19.605469 7.5 L 19.78125 7.585938 L 20.050781 5.972656 M 25.15625 5.8125 L 23.625 5.8125 C 23.148438 5.8125 22.792969 5.945312 22.585938 6.429688 L 19.636719 13.246094 L 21.722656 13.246094 C 21.722656 13.246094 22.0625 12.332031 22.140625 12.128906 C 22.367188 12.128906 24.390625 12.132812 24.679688 12.132812 C 24.738281 12.390625 24.921875 13.246094 24.921875 13.246094 L 26.761719 13.246094 Z M 22.722656 10.617188 C 22.886719 10.1875 23.515625 8.535156 23.515625 8.535156 C 23.503906 8.558594 23.675781 8.105469 23.777344 7.828125 L 23.910156 8.46875 C 23.910156 8.46875 24.292969 10.242188 24.371094 10.617188 Z M 9.21875 5.8125 L 7.273438 10.886719 L 7.066406 9.855469 C 6.707031 8.667969 5.578125 7.378906 4.320312 6.734375 L 6.097656 13.238281 L 8.195312 13.238281 L 11.316406 5.8125 L 9.21875 5.8125 "/>
<path style=" stroke:none;fill-rule:nonzero;fill:rgb(94.901961%,68.235294%,7.843137%);fill-opacity:1;" d="M 5.460938 5.8125 L 2.261719 5.8125 L 2.238281 5.96875 C 4.726562 6.582031 6.375 8.070312 7.058594 9.859375 L 6.363281 6.441406 C 6.242188 5.96875 5.894531 5.828125 5.460938 5.8125 "/>
</g>
</svg>
